# xmcd CD database file
#
# Track frame offsets:
#	150
#	12060
#	22242
#	33167
#	45915
#	57395
#	69390
#	80132
#	90022
#	101552
#
# Disc length: 1510 seconds
#
# Revision: 0
# Processed by: cddbd v1.4PL0 Copyright (c) Steve Scherf et al.
# Submitted via: CDex 1.50beta10
#
DISCID=6e05e40a
DTITLE=Jim Reeves - Hall of Fame - 1967
DYEAR=1900
DGENRE=Country
TTITLE0=Mexican Joe
TTITLE1=Is It Really Over
TTITLE2=Welcome To My World
TTITLE3=Bimbo
TTITLE4=Adios Amigo
TTITLE5=Am I Losing You
TTITLE6=Am I That Easy To Forget
TTITLE7=When Two Worlds Collide
TTITLE8=Love Is No Excuse
TTITLE9=Missing You
EXTD=
EXTT0=
EXTT1=
EXTT2=
EXTT3=
EXTT4=
EXTT5=
EXTT6=
EXTT7=
EXTT8=
EXTT9=
PLAYORDER=
